<svg width="24" height="24" viewBox="0 0 24 24" fill="none" xmlns="http://www.w3.org/2000/svg">
<path d="M12 4.99797C10.164 4.99797 8.64404 5.38697 7.38304 5.96897L3.70704 2.29297L2.29304 3.70697L5.60804 7.02297C2.99504 8.97497 2.06505 11.641 2.05105 11.683L1.94604 11.999L2.05105 12.315C2.07305 12.382 4.36704 19 12 19C13.835 19 15.354 18.611 16.615 18.029L20.293 21.707L21.707 20.293L18.39 16.976C21.004 15.024 21.935 12.358 21.949 12.316L22.054 12L21.949 11.684C21.927 11.616 19.633 4.99797 12 4.99797ZM4.07404 12C4.17704 11.764 4.34804 11.414 4.59504 11.011L10.462 16.878C6.24904 16.23 4.52304 13.035 4.07404 12ZM13.321 16.907L5.84104 9.42597C6.20509 9.06179 6.60287 8.73298 7.02904 8.44397L15.084 16.498C14.5119 16.6943 13.9212 16.8313 13.321 16.907ZM16.969 15.555L15.428 14.014C15.782 13.418 16 12.734 16 11.999C16 11.525 15.901 11.075 15.745 10.65C15.6535 10.7587 15.5396 10.8463 15.4109 10.9067C15.2823 10.9671 15.1421 10.9989 15 11C14.7348 11 14.4805 10.8946 14.2929 10.7071C14.1054 10.5195 14 10.2652 14 9.99997C14 9.56097 14.288 9.19797 14.682 9.06397C13.9533 8.38512 12.996 8.00498 12 7.99897C11.265 7.99897 10.581 8.21697 9.98504 8.57097L8.91504 7.50097C9.9076 7.1603 10.9507 6.99023 12 6.99797C17.351 6.99797 19.425 10.845 19.926 11.998C19.2849 13.4322 18.262 14.6626 16.969 15.555Z" fill="#4A4A4A"/>
</svg>
