<svg enable-background="new 0 0 512 512" viewBox="0 0 512 512" xmlns="http://www.w3.org/2000/svg">
<path d="m507.672 94.208c-2.989-11.159-10.125-20.473-20.092-26.227l-12.188-7.037c-13.327-7.695-29.091-7.444-41.792-.744h-11.61v-13.666c0-9.525-7.749-17.274-17.273-17.274h-18.39c-9.525 0-17.274 7.749-17.274 17.274v13.667h-50.181v-13.667c0-9.525-7.749-17.274-17.274-17.274h-18.388c-9.525 0-17.274 7.749-17.274 17.274v13.667h-50.181v-13.667c0-9.525-7.749-17.274-17.274-17.274h-18.39c-9.524 0-17.273 7.749-17.273 17.274v13.667h-50.182v-13.667c0-9.525-7.749-17.274-17.273-17.274h-18.39c-9.524 0-17.273 7.749-17.273 17.274v13.667h-11.758c-24.866 0-45.097 20.23-45.097 45.097v312.538c0 24.866 20.23 45.097 45.097 45.097h188.67v11.809c0 2.858 1.524 5.499 4 6.928 1.237.714 2.619 1.072 4 1.072s2.763-.357 4-1.072l32.453-18.737h96.511c12.396 0 23.124-4.444 31.889-13.208l56.172-56.172c8.764-8.765 13.208-19.494 13.208-31.888v-192.193l24.54-42.505c5.755-9.966 7.277-21.6 4.287-32.759zm-122.618-47.674c0-.69.584-1.274 1.274-1.274h18.39c.69 0 1.273.583 1.273 1.274v48.254l-5.355 9.275h-14.308c-.69 0-1.274-.583-1.274-1.274zm-103.118 0c0-.69.584-1.274 1.274-1.274h18.389c.69 0 1.274.583 1.274 1.274v56.255c0 .69-.584 1.274-1.274 1.274h-18.389c-.69 0-1.274-.583-1.274-1.274zm-103.119 0c0-.69.583-1.274 1.273-1.274h18.39c.69 0 1.274.583 1.274 1.274v56.255c0 .69-.584 1.274-1.274 1.274h-18.39c-.69 0-1.273-.583-1.273-1.274zm-103.118 0c0-.69.583-1.274 1.273-1.274h18.39c.69 0 1.273.583 1.273 1.274v56.255c0 .69-.583 1.274-1.273 1.274h-18.39c-.69 0-1.273-.583-1.273-1.274zm-27.757 29.667h11.757v26.588c0 9.525 7.749 17.274 17.273 17.274h18.39c9.524 0 17.273-7.749 17.273-17.274v-26.588h50.182v26.588c0 9.525 7.749 17.274 17.273 17.274h18.39c9.525 0 17.274-7.749 17.274-17.274v-26.588h50.181v26.588c0 9.525 7.749 17.274 17.274 17.274h18.389c9.525 0 17.274-7.749 17.274-17.274v-26.588h50.181v26.588c0 9.525 7.749 17.274 17.274 17.274h5.07l-12.18 21.097h-360.371v-35.862c0-16.045 13.052-29.097 29.096-29.097zm0 370.731c-16.044 0-29.097-13.053-29.097-29.097v-260.675h351.135l-18.873 32.689h-284.153c-4.418 0-8 3.582-8 8v208.668c0 4.418 3.582 8 8 8h169.658v32.414h-188.67zm189.743-60.627c-.702 1.216-1.072 2.596-1.072 4v8.213h-22.545v-53.556h47.487zm-23.618-110.9h53.556v53.556h-53.556zm-16 53.556h-53.557v-53.556h53.557zm16-69.556v-53.556h53.556v53.556zm-16 0h-53.557v-53.556h53.557zm-69.556 0h-53.557v-53.556h53.557zm-53.557 16h53.557v53.556h-53.557zm0 69.556h53.557v53.556h-53.557zm69.557 0h53.557v53.556h-53.557zm139.112-69.556h18.089l-18.089 31.331zm27.327-16h-27.327v-53.556h53.557v8.124zm-58.338 144.757 49.123 28.361-49.123 28.361zm148.33 31.456v-49.314c0-.69.584-1.274 1.274-1.274h49.313zm61.903-73.955c0 2.593-.289 5.043-.864 7.366h-59.764c-9.525 0-17.274 7.749-17.274 17.274v59.765c-2.323.575-4.773.863-7.366.863h-68.797l12.957-7.48c1.216-.702 2.226-1.712 2.928-2.928l52.863-91.562h37.21c4.418 0 8-3.582 8-8v-70.306l40.108-69.47v164.478zm-76.081-32.702 19.973-34.594v34.594zm102.765-209.993-174.722 302.627-59.267-34.218 174.721-302.627c7.495-12.979 24.153-17.442 37.132-9.949l12.188 7.037c6.266 3.617 10.754 9.481 12.638 16.512 1.882 7.029.927 14.352-2.69 20.618z" fill="currentColor"></path></svg>